<?xml version="1.0" encoding="UTF-8"?>
<!DOCTYPE svg PUBLIC "-//W3C//DTD SVG 1.1//EN" "http://www.w3.org/Graphics/SVG/1.1/DTD/svg11.dtd">
<!-- Creator: CorelDRAW X7 -->
<svg xmlns="http://www.w3.org/2000/svg" xml:space="preserve" width="353px" height="500px" version="1.1" style="shape-rendering:geometricPrecision; text-rendering:geometricPrecision; image-rendering:optimizeQuality; fill-rule:evenodd; clip-rule:evenodd"
viewBox="0 0 353 499"
 xmlns:xlink="http://www.w3.org/1999/xlink">
 <defs>
  <style type="text/css">
   <![CDATA[
    .str0 {stroke:#373435;stroke-width:0.29652}
    .str7 {stroke:#373435;stroke-width:0.29652}
    .str3 {stroke:#F7ADAF;stroke-width:0.29652}
    .str2 {stroke:#ED3237;stroke-width:0.29652}
    .str4 {stroke:#F7B150;stroke-width:0.29652}
    .str6 {stroke:#64335F;stroke-width:0.29652}
    .str1 {stroke:#00AFEF;stroke-width:0.29652}
    .str5 {stroke:#00A859;stroke-width:0.29652}
    .fil1 {fill:none}
    .fil0 {fill:#FEFEFE}
    .fil8 {fill:#373435}
    .fil4 {fill:#F7ADAF}
    .fil3 {fill:#ED3237}
    .fil5 {fill:#F7B150}
    .fil7 {fill:#64335F}
    .fil2 {fill:#00AFEF}
    .fil6 {fill:#00A859}
    .fil9 {fill:#373435;fill-rule:nonzero}
   ]]>
  </style>
 </defs>
 <g id="Layer_x0020_1">
  <metadata id="CorelCorpID_0Corel-Layer"/>
  <g id="_603331344">
   <circle class="fil0 str0" cx="104" cy="168" r="26"/>
   <circle class="fil1 str0" cx="104" cy="168" r="18"/>
   <g>
    <path class="fil2 str1" d="M99 161c0,-1 1,-1 1,0l0 1c0,0 2,1 2,0l0 -5c0,-1 1,-1 1,0l0 11 -1 0 0 -2c0,-1 -2,-1 -2,0l0 3 -1 0 0 -8z"/>
    <path class="fil3 str2" d="M104 156c0,-1 1,-1 1,0l0 4c0,1 1,1 1,1l0 7 -2 0 0 -12z"/>
    <path class="fil4 str3" d="M108 159c0,-1 -1,-1 -1,0l0 1c0,0 0,1 -1,1l0 7 1 -1 0 -6c0,0 1,-1 1,-1l0 -1z"/>
    <path class="fil5 str4" d="M113 161c0,0 -1,0 -1,0l0 3c0,0 0,1 -1,1l0 2c1,0 2,1 2,1l0 -5 0 -2z"/>
    <path class="fil2 str1" d="M108 160c0,0 1,0 1,1l0 1c0,0 0,1 0,1l0 4 -1 0 0 -7z"/>
    <path class="fil5 str4" d="M103 157c0,0 1,0 1,0l0 2c0,0 0,0 0,0l0 8c0,0 0,0 0,1l-1 0 0 0 0 -11z"/>
    <path class="fil6 str5" d="M111 159c0,-1 -1,-1 -1,0l0 3c0,0 0,1 -1,1l0 4c1,0 2,0 2,0l0 -2c0,0 0,-1 0,-1l0 -5c0,0 0,0 0,0z"/>
    <path class="fil2 str1" d="M111 159c0,0 0,0 0,0l0 5c0,0 0,0 0,0l0 -5z"/>
    <path class="fil5 str4" d="M105 154c0,-1 1,-1 1,0l0 0 0 7c0,0 -1,0 -1,-1l0 -4c0,-1 0,-1 0,-1l0 -1z"/>
    <path class="fil5 str4" d="M110 157c0,-1 -1,-1 -1,0l0 0 0 5c0,0 1,1 1,0l0 -3c0,0 0,0 0,-1l0 -1z"/>
    <path class="fil7 str6" d="M107 161c0,-1 1,-1 1,-1l0 7 -1 0 0 -6z"/>
    <path class="fil6 str5" d="M102 157c0,-1 1,0 1,0l0 11 -1 0 0 -11z"/>
    <path class="fil8 str7" d="M97 170l5 3 -1 1 -2 -2c0,0 -1,0 0,0l2 2 -1 2 -2 -2c-1,0 -1,0 -1,1l3 1 -1 2 -2 -2c-1,0 -1,0 -1,1l2 1 0 1 -5 -3c0,-1 0,-1 0,-1 1,0 1,0 1,-1 0,0 0,0 0,0 1,0 1,0 1,-1 -1,0 -1,-1 0,-1 1,0 1,0 0,0 0,-1 0,-1 1,-1 1,0 1,0 0,0 0,-1 0,-2 1,-1z"/>
    <polygon class="fil8 str0" points="103,174 102,173 98,179 99,180 "/>
    <path class="fil8 str7" d="M104 176c0,-1 0,-1 -1,-2l-4 6c1,0 2,0 2,0 1,-1 2,-1 3,0l2 1c1,1 1,1 2,1 1,0 1,0 0,-1 0,0 0,-1 -2,-1l-2 -2c-1,0 -1,-1 0,-2z"/>
    <path class="fil8 str7" d="M99 171l10 -2c-1,1 -2,3 0,5l-8 -1 -2 -2z"/>
    <path class="fil8 str7" d="M100 169c6,-1 10,-1 11,-1l-3 1 -9 1c0,0 1,-1 1,-1z"/>
    <path class="fil8 str7" d="M111 168c2,0 3,1 3,3 0,0 0,1 0,1 0,0 -1,-1 -1,-1l-2 0c0,0 0,0 0,-1 1,0 0,0 0,0 -1,0 -1,1 0,2 1,0 3,0 2,1l0 0c0,1 -1,2 -2,2 -2,0 -3,-2 -3,-4 0,-2 1,-3 3,-3z"/>
    <path class="fil0 str0" d="M111 174c-1,0 -2,0 -2,-1 -1,-1 0,-3 1,-4 0,0 1,-1 1,-1 0,0 -1,1 -1,1 -1,1 -1,3 -1,4 1,1 1,1 2,1z"/>
    <path class="fil8 str7" d="M114 172l0 -1 0 1c1,0 1,1 0,1l-1 3c0,0 -1,1 -2,0l-4 0c0,0 -1,0 -1,0 0,1 -1,2 -1,3l0 1c0,1 0,2 -1,3 0,0 -1,0 -1,0 -1,-1 -1,-1 0,-2l0 -2 1 -1 1 -2c1,-1 2,-1 3,-1l3 1c1,0 2,0 2,-1l1 -2c0,0 0,-1 0,-1z"/>
   </g>
   <path class="fil9" d="M84 161l-1 -1 1 -1 1 0c0,1 0,1 0,1 0,1 0,1 0,1 0,1 0,1 0,1 -1,0 -1,1 -1,1 -1,0 -1,0 -2,-1 0,0 0,0 -1,0 0,-1 0,-1 0,-1 0,-1 0,-1 0,-1 0,-1 1,-1 1,-1 0,0 0,0 0,-1 1,0 1,0 1,0l0 2c0,0 0,0 -1,0 0,0 0,0 0,0 0,0 0,0 0,1 0,0 1,0 1,0 0,0 1,0 1,0 0,0 0,0 0,0 0,0 0,0 0,-1 0,0 0,0 0,0l0 0 0 1zm4 -5l-1 1 0 0 -1 1 -2 -3 1 -1 4 1 -1 1 0 0zm-1 -1l-2 0 1 1 1 -1zm0 -4l2 -1 2 1 -1 -2 1 -1 2 3 0 1 -2 -3 1 3 -1 1 -2 -2 2 2 -1 1 -3 -3zm7 -2l1 0c0,0 1,0 1,0 0,0 0,0 0,0 0,0 0,0 1,0 0,0 0,0 0,-1 0,0 -1,0 -1,0 0,0 0,0 0,0 -1,0 -1,0 -2,0 0,0 0,0 0,0 0,-1 0,-1 0,-1 0,0 0,0 0,-1 0,0 1,0 1,0 0,0 1,0 1,0 0,0 1,0 1,0l-1 1c0,0 0,0 0,0 -1,0 -1,0 -1,0 0,0 0,0 0,0 0,0 0,0 0,0 0,0 0,0 0,0 0,0 0,0 0,0 1,0 1,0 2,0 0,0 0,0 0,0 0,0 0,1 1,1 0,0 0,0 0,1 0,0 -1,0 -1,0 0,0 0,1 -1,1 0,0 -1,0 -1,0 0,0 -1,-1 -1,-1zm11 -3l1 1c0,0 0,0 0,0 0,0 0,0 0,0l0 1c0,0 0,0 0,0l0 0c0,0 0,0 0,0 -1,0 -1,0 -1,0 0,0 0,0 0,0 -1,0 -1,0 -1,0 -1,0 -1,0 -1,0 -1,0 -1,-1 -1,-1 0,0 0,0 1,-1 0,0 0,0 0,0 0,0 0,0 0,0 0,-1 0,-1 0,-1 0,0 0,0 0,-1 0,0 1,0 1,0 1,0 1,0 1,0 0,1 0,1 0,1 0,0 0,0 0,0 0,1 0,1 0,1 0,0 0,0 0,0 0,0 0,1 0,1 0,0 0,-1 0,-1zm-1 0c0,0 0,-1 0,-1 1,0 1,0 1,0 0,0 0,0 0,0 -1,0 -1,0 -1,0 0,0 0,0 0,0 0,0 0,0 0,0 0,0 0,0 0,1zm0 1c0,0 -1,0 -1,0 0,0 0,0 0,0 0,0 0,0 1,0 0,1 0,1 0,1 0,0 0,0 1,-1 -1,0 -1,0 -1,0zm8 -1l1 0 -1 3 2 1 -1 1 -2 -2 1 -3zm5 6l-1 0 -1 0 -1 -1 4 -2 1 1 -1 4 -1 -1 0 -1zm0 0l1 -2 -1 1 0 1zm5 1l1 1 -2 2 3 -1 1 1 -4 2 0 0 2 -2 -3 1 0 -1 2 -2 -3 2 0 -1 3 -2zm1 6l1 2c0,0 -1,0 -1,0 0,0 0,0 0,0 0,1 0,1 1,1 0,0 0,0 0,0 0,0 0,0 0,0 0,-1 0,-1 0,-1 0,-1 0,-1 0,-1 0,-1 1,-1 1,-1 0,0 0,0 0,0 1,0 1,0 1,0 0,1 0,1 1,1 0,1 0,1 0,1 0,1 -1,1 -1,1l-1 -1c1,0 1,0 1,0 0,0 0,0 0,-1 0,0 0,0 0,0 -1,0 -1,0 -1,0 0,0 0,0 0,0 0,0 0,0 0,1 0,0 0,1 0,1 0,0 0,0 0,0 0,1 0,1 -1,1 0,0 0,0 0,0 -1,0 -1,0 -1,-1 0,0 0,0 0,0 -1,-1 -1,-1 -1,-2 1,0 1,0 1,-1z"/>
   <path class="fil9" d="M82 177l1 1 0 -1c0,0 1,0 1,0 0,1 0,1 0,1 0,0 1,0 1,0 0,0 0,0 0,-1 0,0 0,0 0,0 0,-1 0,-1 0,-1l-3 1zm3 0c0,0 0,0 0,0 0,0 0,0 0,0 -1,1 -1,0 -1,0 0,0 0,0 0,0l1 0zm0 3l-1 1 1 0 2 -2 -1 -1 -3 1 1 1 0 0 1 0zm0 -1l0 0c1,0 1,0 1,0l0 0c0,0 0,0 0,0l-1 1 0 -1zm2 1l-2 2 0 0 3 -1 -1 -1zm-1 4l1 -1c0,0 1,-1 1,-1l0 0c0,1 0,1 0,1l-1 1 1 1 2 -2 -1 0 0 0c-1,0 -1,1 -1,1l0 0c0,0 0,-1 0,-1l1 -1 -1 -1 -2 2 0 1zm3 2l0 0 2 -1 0 0 1 0 -2 -2 0 1 0 0 -1 2zm3 -1l-1 2 0 1 2 -3 -1 0zm0 3l1 0c0,-1 0,-1 0,-1l0 0c0,0 0,0 0,1l0 1 1 0 1 -2 0 -1 -1 1c0,1 0,1 0,1l0 0c0,0 0,0 0,-1l0 -1 -1 0 -1 2 0 0zm5 1l-1 0 0 0 1 0 0 1c-1,0 -1,0 -1,0 0,-1 0,-1 0,-2 0,0 0,0 1,0 0,0 0,0 0,0l1 0c0,0 -1,0 -1,-1 -1,0 -2,0 -2,1 0,1 0,1 0,1 0,1 1,1 1,1 0,0 1,0 1,0l0 -1zm5 2c-1,0 -1,0 -1,0 0,0 1,-1 1,-1l-1 0c0,0 0,0 0,0 0,0 0,0 0,0l0 0c0,0 0,-1 0,-1 0,0 0,-1 0,-1 -1,0 -1,1 -1,1 0,0 0,0 0,0l0 0c-1,1 -1,1 -1,1 0,1 0,1 1,1 0,0 0,0 1,0 0,0 0,0 0,0l1 0zm-2 0c0,0 0,-1 0,-1 0,0 0,0 0,0 0,0 0,0 0,1 0,0 0,0 0,0zm0 -2c1,0 1,0 1,0 0,0 0,0 -1,0 0,0 0,0 0,0 0,0 0,0 0,0zm4 2c0,0 0,0 0,0 1,0 1,0 2,0 0,0 0,-1 0,-1 0,-1 0,-1 -1,-1 0,0 0,0 -1,0 0,0 0,0 -1,0l1 2zm0 -2c0,0 0,0 0,0 1,0 1,0 1,1 0,1 0,1 -1,1 0,0 0,0 0,0l0 -2zm4 0l-1 0 0 0 1 0 0 -1 -2 0 1 3 2 0 -1 -1 -1 1 0 -1 1 0 0 -1zm3 1c0,0 0,0 0,0 -1,0 -1,0 -1,-1 -1,0 0,-1 0,-1 0,0 1,0 1,0l0 0c0,0 -1,0 -1,0 -1,0 -1,1 -1,1 0,1 1,2 2,1 0,0 0,0 0,0l0 0zm1 -3c-1,0 -1,1 -1,2 1,0 1,1 2,0 1,0 1,-1 1,-1 -1,-1 -1,-2 -2,-1zm0 0c1,0 1,0 1,1 0,0 0,1 0,1 0,0 -1,0 -1,-1 0,0 0,-1 0,-1zm3 1l1 0 -1 -1 0 0c0,0 1,0 1,0 0,1 0,1 0,1l1 -1c0,0 0,0 -1,0 0,0 0,0 0,0l0 0c0,-1 0,-1 0,-1 0,-1 -1,-1 -1,-1 0,0 0,0 -1,1 0,0 0,0 0,0l1 2zm-1 -2c0,0 1,0 1,0 0,0 0,0 0,0 0,0 0,1 0,1l0 0 -1 -1zm4 -1l1 1 0 -1 -2 -1 -1 0 1 3 1 0 0 -1 0 -1zm-1 0l0 0c0,0 0,0 0,-1l0 0c0,1 0,1 0,1l1 0 -1 0zm3 0l1 -1 -2 -1 0 -1 0 0 -1 1 0 1 0 -1 2 2zm-1 -4l3 2 0 0 -2 -2 -1 0zm4 0l-1 0c0,0 -1,-1 -1,-1l0 0c1,0 1,0 1,0l1 0 1 0 -2 -2 -1 1 1 0c0,1 1,1 1,1l0 0c0,0 -1,0 -1,0l-1 0 -1 0 3 2 0 -1zm1 -5l-1 1 1 0 0 0 1 0c0,0 0,0 -1,1 0,0 0,0 -1,0 0,0 0,-1 0,-1 0,0 0,-1 0,-1l0 0c0,0 0,0 -1,1 0,0 0,1 1,2 0,0 1,0 1,0 0,0 1,-1 1,-1 0,-1 0,-1 0,-1l-1 -1z"/>
  </g>
  <circle class="fil8 str0" cx="82" cy="170" r="1"/>
  <circle class="fil8 str0" cx="126" cy="170" r="1"/>
 </g>
</svg>
