<?xml version="1.0" encoding="UTF-8"?>
<!DOCTYPE svg PUBLIC "-//W3C//DTD SVG 1.1//EN" "http://www.w3.org/Graphics/SVG/1.1/DTD/svg11.dtd">
<!-- Creator: CorelDRAW X7 -->
<svg xmlns="http://www.w3.org/2000/svg" xml:space="preserve" width="354px" height="500px" version="1.1" style="shape-rendering:geometricPrecision; text-rendering:geometricPrecision; image-rendering:optimizeQuality; fill-rule:evenodd; clip-rule:evenodd"
viewBox="0 0 354 501"
 xmlns:xlink="http://www.w3.org/1999/xlink">
 <defs>
  <style type="text/css">
   <![CDATA[
    .str0 {stroke:#373435;stroke-width:0.29736}
    .str7 {stroke:#373435;stroke-width:0.29736}
    .str3 {stroke:#F7ADAF;stroke-width:0.29736}
    .str2 {stroke:#ED3237;stroke-width:0.29736}
    .str4 {stroke:#F7B150;stroke-width:0.29736}
    .str6 {stroke:#64335F;stroke-width:0.29736}
    .str1 {stroke:#00AFEF;stroke-width:0.29736}
    .str5 {stroke:#00A859;stroke-width:0.29736}
    .fil0 {fill:none}
    .fil8 {fill:#FEFEFE}
    .fil7 {fill:#373435}
    .fil3 {fill:#F7ADAF}
    .fil2 {fill:#ED3237}
    .fil4 {fill:#F7B150}
    .fil6 {fill:#64335F}
    .fil1 {fill:#00AFEF}
    .fil5 {fill:#00A859}
    .fil9 {fill:#373435;fill-rule:nonzero}
   ]]>
  </style>
 </defs>
 <g id="Layer_x0020_1">
  <metadata id="CorelCorpID_0Corel-Layer"/>
  <g id="_741742128">
   <circle class="fil0 str0" cx="78" cy="79" r="18"/>
   <g>
    <path class="fil1 str1" d="M73 72c0,-1 2,-1 2,0l0 0c0,1 1,1 1,0l0 -4c0,-2 1,-2 1,-1l0 12 -1 0 0 -2c0,-1 -1,-1 -1,0l0 2 -2 1 0 -8z"/>
    <path class="fil2 str2" d="M79 67c0,-1 1,-1 1,0l0 4c0,0 0,1 1,1l0 7 -2 0 0 -12z"/>
    <path class="fil3 str3" d="M83 69c0,0 -2,0 -2,0l0 2c0,0 0,1 0,1l0 6 1 0 0 -6c0,0 0,-1 1,-1l0 -2z"/>
    <path class="fil4 str4" d="M88 72c0,-1 -1,-1 -1,0l-1 3c1,0 0,0 0,0l0 3c1,0 1,0 2,1l0 -5 0 -2z"/>
    <path class="fil1 str1" d="M83 71c0,0 0,0 0,1l0 1c0,0 0,0 1,0l0 5 -1 0 0 -7z"/>
    <path class="fil4 str4" d="M77 68c0,-1 1,-1 1,0l0 1c0,1 0,1 1,1l0 8c-1,0 -1,0 -1,0l0 1 -1 0 0 -11z"/>
    <path class="fil5 str5" d="M86 70c0,-1 -1,-1 -1,0l0 3c0,0 -1,1 -1,0l0 5c0,0 1,0 2,0l0 -3c-1,0 -1,0 -1,0l0 -5c0,-1 1,-1 1,0z"/>
    <path class="fil1 str1" d="M85 70c0,0 1,0 1,0l0 5c0,0 -1,0 -1,-1l0 -4z"/>
    <path class="fil4 str4" d="M80 65c0,-1 0,-1 0,0l0 0 0 6c0,0 0,0 0,0l0 -4c0,-1 0,-1 0,-1l0 -1z"/>
    <path class="fil4 str4" d="M85 68c0,-1 -1,-1 -1,0l0 0 0 5c0,0 0,0 1,-1l0 -2c0,0 0,-1 0,-1l0 -1z"/>
    <path class="fil6 str6" d="M82 72c0,-1 1,-1 1,-1l0 7 -1 0 0 -6z"/>
    <path class="fil5 str5" d="M77 68c0,-1 0,-1 0,0l0 11 0 0 0 -11z"/>
    <path class="fil7 str7" d="M71 81l5 3 0 0 -2 -1c-1,0 -1,0 -1,0l2 2 -1 2 -2 -2c-1,0 -1,0 0,1l2 1 -1 1 -2 -1c0,0 -1,0 0,1l2 1 -1 1 -5 -3c0,-1 0,-1 1,-1 0,0 0,0 0,-1 0,0 0,0 0,0 1,0 1,-1 1,-1 0,-1 0,-1 1,-1 0,0 0,0 0,0 0,-1 0,-1 0,-1 1,0 1,0 1,0 -1,-1 0,-2 0,-1z"/>
    <polygon class="fil7 str0" points="77,85 77,84 73,90 73,90 "/>
    <path class="fil7 str7" d="M78 87c0,-1 0,-2 0,-2l-4 6c0,0 1,0 2,-1 1,0 2,0 3,1l1 1c1,1 2,1 2,1 1,0 1,0 1,-1 0,0 -1,-1 -2,-1l-2 -2c-1,0 -1,-1 -1,-2z"/>
    <path class="fil7 str7" d="M73 82l11 -3c-2,1 -2,4 -1,6l-8 -1 -2 -2z"/>
    <path class="fil7 str7" d="M74 80c6,-1 11,-2 12,-1l-3 1 -10 1c1,0 1,-1 1,-1z"/>
    <path class="fil7 str7" d="M85 79c2,0 3,1 3,3 0,0 0,1 0,1 0,0 0,-1 -1,-1l-1 0c-1,0 -1,-1 0,-1 0,0 -1,0 -1,0 -1,0 -1,1 0,2 1,0 3,0 3,1l0 0c-1,1 -2,1 -3,1 -1,0 -2,-1 -2,-3 0,-2 1,-3 2,-3z"/>
    <path class="fil8 str0" d="M86 85c-1,0 -2,0 -3,-1 0,-2 0,-3 1,-4 1,-1 1,-1 2,-1 -1,0 -1,0 -2,1 -1,1 -1,2 0,4 0,1 1,1 2,1z"/>
    <path class="fil7 str7" d="M88 83l0 -1 1 0c0,1 0,1 0,2l-1 2c-1,1 -1,1 -2,1l-4 0c-1,-1 -1,0 -2,0 0,1 0,2 0,3l-1 1c0,1 0,2 0,3 -1,0 -1,0 -2,0 -1,-1 -1,-2 0,-2l1 -2 0 -1 2 -2c0,-1 1,-1 2,-1l3 0c1,1 2,1 2,0l1 -2c0,0 0,-1 0,-1z"/>
   </g>
   <path class="fil9" d="M58 71l-1 0 1 -2 2 1c0,0 0,1 0,1 0,0 0,1 0,1 -1,1 -1,1 -1,1 0,0 -1,0 -1,0 0,0 -1,0 -1,0 -1,0 -1,0 -1,0 0,-1 -1,-1 -1,-1 0,-1 1,-1 1,-2 0,0 0,0 0,0 0,-1 0,-1 1,-1 0,0 0,0 0,0l0 1c0,0 0,0 0,0 0,1 0,1 -1,1 0,0 0,0 1,1 0,0 0,0 0,0 1,0 1,0 1,0 0,0 1,0 1,0 0,0 0,-1 0,-1 0,0 0,0 0,0l-1 0 0 0zm4 -5l-1 1 1 1 -1 1 -3 -4 1 -1 4 2 0 1 -1 -1zm-1 0l-1 0 1 1 0 -1zm1 -5l1 -1 2 2 -1 -2 1 -1 3 3 -1 0 -2 -2 1 3 0 1 -3 -2 2 2 -1 1 -2 -4zm7 -1l1 -1c0,1 0,1 0,1 0,0 0,0 1,0 0,0 0,0 0,0 0,-1 0,-1 0,-1 0,0 0,0 0,0 0,0 -1,0 -1,0 0,0 -1,0 -1,0 0,0 -1,0 -1,-1 0,0 0,0 0,0 0,-1 0,-1 1,-1 0,0 0,0 0,0 1,-1 1,-1 2,-1 0,1 0,1 0,1l-1 1c0,-1 0,-1 0,-1 0,0 0,0 0,0 -1,0 -1,0 -1,1 0,0 0,0 0,0 0,0 0,0 0,0 0,0 1,0 1,0 0,0 1,0 1,0 0,0 0,0 1,0 0,0 0,0 0,1 0,0 0,0 0,0 0,1 0,1 0,1 0,0 -1,0 -1,1 -1,0 -1,0 -2,0 0,0 0,-1 0,-1zm11 -3l1 0c0,0 0,1 0,1 -1,0 -1,0 -1,0l1 0c0,0 0,0 0,0l-1 1c0,0 0,0 0,0 0,0 0,0 0,0 0,0 -1,0 -1,0 0,0 0,0 -1,0 0,0 -1,0 -1,0 0,0 0,-1 0,-1 0,0 0,-1 0,-1 0,0 0,0 1,0 0,0 -1,-1 -1,-1 0,0 0,0 0,0 0,0 0,-1 1,-1 0,0 0,0 1,0 0,0 0,0 1,0 0,0 0,1 0,1 0,0 0,0 0,0 0,0 0,0 0,1 -1,0 -1,0 -1,0 0,0 0,0 1,0 0,0 0,0 0,0zm-1 -1c0,0 0,0 0,0 0,0 0,0 0,0 0,0 0,0 0,0 0,0 0,0 0,0 0,0 0,0 -1,0 0,0 0,0 0,0 0,0 0,0 1,0zm-1 1c0,0 0,1 0,1 0,0 0,0 0,0 0,0 0,0 0,0 0,0 0,0 0,0 1,0 1,0 1,0 0,0 0,0 -1,-1zm9 -1l1 1 -1 3 1 1 0 0 -3 -1 2 -4zm5 7l-2 -1 0 1 -1 -1 4 -2 1 1 -2 4 -1 -1 1 -1zm0 -1l0 -1 -1 1 1 0zm5 1l1 2 -2 2 2 -1 1 1 -3 2 -1 -1 3 -1 -3 1 -1 -1 2 -2 -2 2 -1 -1 4 -3zm1 7l0 1c0,0 0,1 0,1 0,0 0,0 0,0 0,0 0,0 0,1 0,0 0,0 0,0 0,0 1,-1 1,-1 0,0 0,0 0,0 0,-1 0,-1 0,-2 0,0 0,0 0,0 1,0 1,0 1,0 0,0 0,0 1,0 0,0 0,1 0,1 0,1 0,1 0,1 0,1 0,1 -1,1l0 -1c0,0 0,0 0,0 0,0 0,-1 0,-1 0,0 0,0 0,0 0,0 0,0 0,0 0,0 0,0 0,0 0,0 0,0 0,0 0,1 0,1 0,2 0,0 0,0 -1,0 0,0 0,1 0,1 0,0 -1,0 -1,0 0,0 0,0 0,-1 -1,0 -1,0 -1,-1 0,0 0,-1 0,-1 0,0 0,-1 1,-1z"/>
   <path class="fil9" d="M57 88l0 0 1 0c0,0 0,0 0,0 0,1 0,1 1,1 0,0 0,0 0,0 1,0 1,0 1,-1 0,0 0,0 0,-1 -1,0 -1,0 -1,0l-2 1zm2 -1c0,1 0,1 0,1 0,0 0,0 0,0 0,0 0,0 -1,0 0,0 0,0 0,0l1 -1zm0 4l0 1 0 0 2 -2 -1 -1 -2 1 0 1 1 -1 0 1zm0 -1l1 0c0,0 0,0 0,0l0 0c0,0 0,0 0,0l-1 1 0 -1zm3 1l-3 2 1 0 2 -1 0 -1zm-1 4l0 -1c1,0 1,-1 1,-1l0 0c0,0 0,1 0,1l0 1 0 1 2 -2 0 -1 -1 1c0,0 0,1 -1,1l0 0c0,0 1,-1 1,-1l0 -1 0 -1 -3 2 1 1zm2 2l1 0 1 -2 1 1 0 -1 -2 -1 0 1 1 0 -2 2zm4 -1l-2 2 0 0 2 -2 0 0zm0 3l0 0c0,-1 0,-1 1,-2l0 0c0,1 0,1 0,2l0 1 0 0 2 -2 -1 -1 0 1c-1,0 -1,1 -1,1l0 0c0,0 0,-1 0,-1l0 -1 -1 0 -1 2 1 0zm5 1l-1 -1 0 1 0 0 0 1c0,0 0,0 0,0 -1,-1 -1,-1 -1,-2 0,0 1,0 1,0 1,0 1,0 1,0l0 0c0,0 0,-1 -1,-1 0,0 -1,0 -2,1 0,1 0,1 1,1 0,1 0,1 0,1 1,0 1,0 1,0l1 -1zm4 2c0,0 0,0 0,0 0,-1 0,-1 0,-1l0 0c0,0 -1,0 -1,0 0,0 0,0 0,0l0 0c0,-1 1,-1 1,-1 0,0 -1,-1 -1,-1 -1,0 -1,0 -1,1 0,0 0,0 0,0l0 0c0,0 0,1 -1,1 0,0 1,1 1,1 1,0 1,0 1,0 0,0 0,0 0,0l1 0zm-2 0c0,0 0,-1 0,-1 0,0 0,0 0,0 1,0 1,0 1,1 0,0 0,0 -1,0zm1 -2c0,0 0,0 0,0 0,0 0,0 0,0 0,0 0,0 0,0 0,0 0,0 0,0zm3 2c0,0 0,0 1,0 0,0 1,0 1,0 0,0 0,-1 0,-1 0,-1 0,-1 0,-1 0,0 -1,-1 -1,-1 -1,0 -1,1 -1,1l0 2zm1 -2c0,0 0,0 0,0 0,0 1,0 1,1 0,0 -1,1 -1,1 0,0 0,0 0,0l0 -2zm4 0l-1 0 -1 0 2 0 -1 -1 -1 0 0 3 2 0 0 -1 -1 1 0 -1 1 0 0 -1zm3 1c-1,0 -1,0 -1,0 0,0 -1,0 -1,-1 0,0 0,-1 1,-1 0,0 0,0 0,0l0 -1c0,0 0,0 -1,1 0,0 -1,0 -1,1 1,1 1,2 2,1 0,0 1,0 1,0l0 0zm0 -3c0,0 -1,1 0,2 0,0 1,1 2,0 0,0 1,-1 0,-2 0,0 -1,-1 -2,0zm1 0c0,0 0,0 1,1 0,0 0,1 -1,1 0,0 0,0 -1,-1 0,0 0,-1 1,-1zm3 1l0 0 0 -1 0 0c0,0 0,0 0,0 1,0 1,1 1,1l0 -1c0,0 0,0 0,0 0,0 -1,-1 -1,-1l0 0c0,0 0,0 0,0 0,-1 0,-1 0,-1 -1,0 -1,0 -1,1 0,0 -1,0 -1,0l2 2zm-1 -2c0,0 0,0 0,0 0,0 1,0 1,0 0,0 0,0 0,1l-1 0 0 -1zm4 -1l0 1 1 -1 -3 -1 0 0 1 3 0 -1 0 0 1 -1zm-1 0l0 0c0,0 -1,-1 -1,-1l0 0c1,0 1,1 1,1l0 0 0 0zm3 0l0 -1 -2 -1 1 -1 0 0 -2 1 0 1 1 -1 2 2zm-1 -4l2 2 0 0 -2 -2 0 0zm3 0l0 0c-1,0 -1,-1 -1,-1l0 0c0,0 0,0 1,0l1 0 0 0 -2 -2 0 1 0 0c1,0 1,1 1,1l0 0c0,0 0,0 -1,0l-1 0 0 0 2 2 0 -1zm1 -5l0 1 0 0 1 0 0 0c0,0 0,0 0,0 0,1 -1,1 -1,1 -1,0 -1,-1 -1,-1 0,-1 1,-1 1,-1l-1 0c0,0 0,0 0,0 -1,1 0,2 1,3 0,0 0,0 1,0 0,-1 0,-1 0,-1 1,-1 1,-1 1,-1l-2 -1z"/>
   <circle class="fil0 str0" cx="78" cy="79" r="26"/>
  </g>
  <circle class="fil7 str0" cx="56" cy="81" r="1"/>
  <circle class="fil7 str0" cx="100" cy="81" r="1"/>
 </g>
</svg>
