<?xml version="1.0" encoding="UTF-8"?>
<!DOCTYPE svg PUBLIC "-//W3C//DTD SVG 1.1//EN" "http://www.w3.org/Graphics/SVG/1.1/DTD/svg11.dtd">
<!-- Creator: CorelDRAW X7 -->
<svg xmlns="http://www.w3.org/2000/svg" xml:space="preserve" width="353px" height="500px" version="1.1" style="shape-rendering:geometricPrecision; text-rendering:geometricPrecision; image-rendering:optimizeQuality; fill-rule:evenodd; clip-rule:evenodd"
viewBox="0 0 353 499"
 xmlns:xlink="http://www.w3.org/1999/xlink">
 <defs>
  <style type="text/css">
   <![CDATA[
    .str0 {stroke:#FEFEFE;stroke-width:0.29652}
    .str3 {stroke:#F7ADAF;stroke-width:0.29652}
    .str2 {stroke:#ED3237;stroke-width:0.29652}
    .str4 {stroke:#F7B150;stroke-width:0.29652}
    .str6 {stroke:#64335F;stroke-width:0.29652}
    .str1 {stroke:#00AFEF;stroke-width:0.29652}
    .str5 {stroke:#00A859;stroke-width:0.29652}
    .fil8 {fill:none}
    .fil0 {fill:#FEFEFE}
    .fil3 {fill:#F7ADAF}
    .fil2 {fill:#ED3237}
    .fil4 {fill:#F7B150}
    .fil6 {fill:#64335F}
    .fil1 {fill:#00AFEF}
    .fil5 {fill:#00A859}
    .fil7 {fill:#FEFEFE;fill-rule:nonzero}
   ]]>
  </style>
 </defs>
 <g id="Layer_x0020_1">
  <metadata id="CorelCorpID_0Corel-Layer"/>
  <circle class="fil0 str0" cx="78" cy="79" r="18"/>
  <path class="fil1 str1" d="M73 72c0,-2 1,-1 1,-1l0 1c0,1 2,1 2,0l0 -5c0,-1 1,-1 1,0l0 12 -1 0 0 -2c0,-2 -2,-2 -2,0l0 2 -1 1 0 -8z"/>
  <path class="fil2 str2" d="M79 66c0,-1 1,-1 1,0l0 5c0,0 0,0 0,0l0 7 -1 1 0 -13z"/>
  <path class="fil3 str3" d="M82 69c0,-1 -1,-1 -1,0l0 2c0,0 0,0 -1,0l0 7 2 0 0 -6c0,-1 0,-1 0,-1l0 -2z"/>
  <path class="fil4 str4" d="M87 72c0,-1 -1,-1 -1,0l0 2c0,1 0,1 0,1l0 3c0,0 1,0 2,1l0 -5 -1 -2z"/>
  <path class="fil1 str1" d="M82 71c0,0 1,0 1,1l0 1c0,0 0,0 0,0l0 5 -1 0 0 -7z"/>
  <path class="fil4 str4" d="M77 67c0,0 1,0 1,1l0 1c0,1 0,1 0,1l0 8c0,0 0,0 0,0l0 1 -1 0 0 -12z"/>
  <path class="fil5 str5" d="M86 70c0,-1 -1,-1 -2,0l0 2c0,1 0,1 -1,1l0 5c1,0 2,0 3,0l0 -3c-1,0 -1,0 -1,-1l0 -4c0,-1 1,-1 1,0z"/>
  <path class="fil1 str1" d="M85 70c0,-1 1,-1 1,0l0 5c0,0 -1,0 -1,-1l0 -4z"/>
  <path class="fil4 str4" d="M79 64c0,0 1,0 1,0l0 0 0 7c0,0 0,0 0,-1l0 -4c0,0 0,0 -1,0l0 -2z"/>
  <path class="fil4 str4" d="M85 68c0,-1 -2,-1 -2,0l0 0 0 5c0,0 1,0 1,-1l0 -2c0,-1 0,-1 1,-1l0 -1z"/>
  <path class="fil6 str6" d="M82 72c0,-1 0,-1 0,-1l0 7 0 0 0 -6z"/>
  <path class="fil5 str5" d="M76 68c0,-1 1,-1 1,-1l0 12 -1 0 0 -11z"/>
  <path class="fil0 str0" d="M71 80l5 4 0 0 -3 -1c0,-1 -1,0 0,0l2 2 -1 1 -2 -1c-1,0 -1,0 -1,0l3 2 -1 1 -2 -1c-1,0 -1,0 -1,0l2 2 0 0 -5 -3c0,0 0,0 1,0 0,-1 0,-1 0,-1 0,0 0,-1 0,-1 1,0 1,0 1,0 -1,-1 0,-1 0,-1 1,0 1,0 1,0 -1,-1 0,-1 0,-1 1,0 1,0 1,-1 -1,0 -1,-1 0,-1z"/>
  <polygon class="fil0 str0" points="77,84 76,84 72,90 73,90 "/>
  <path class="fil0 str0" d="M78 86c0,0 0,-1 -1,-1l-4 5c1,1 2,1 2,0 1,-1 3,0 4,0l1 2c1,0 1,1 2,1 1,0 1,0 1,-1 -1,-1 -1,-1 -3,-2l-2 -1c0,-1 0,-2 0,-3z"/>
  <path class="fil0 str0" d="M73 81l10 -2c-1,1 -2,4 0,6l-8 -1 -2 -3z"/>
  <path class="fil0 str0" d="M74 80c6,-1 10,-2 12,-2l-4 1 -9 2c0,-1 1,-1 1,-1z"/>
  <path class="fil0 str0" d="M85 78c2,0 3,2 3,4 0,0 0,0 0,1 0,-1 -1,-1 -1,-1l-2 0c0,0 0,-1 0,-1 1,0 0,-1 0,0 -1,0 -1,1 0,1 1,1 3,1 2,2l0 0c0,1 -1,1 -2,1 -1,0 -3,-1 -3,-3 0,-2 2,-4 3,-4z"/>
  <path class="fil0 str0" d="M85 85c-1,0 -1,-1 -2,-1 -1,-2 0,-4 1,-4 0,-1 1,-1 1,-1 0,0 0,0 -1,0 -1,1 -1,3 -1,5 1,0 2,1 2,1z"/>
  <path class="fil0 str0" d="M88 82l0 0 1 0c0,1 0,1 0,2l-1 2c-1,1 -2,1 -3,1l-4 -1c0,0 -1,0 -1,1 0,0 0,1 -1,3l0 1c0,1 0,2 0,2 -1,1 -1,1 -2,0 -1,0 -1,-1 0,-2l1 -1 0 -1 2 -3c0,0 1,-1 2,0l3 0c1,0 2,0 2,0l1 -2c0,-1 0,-1 0,-2z"/>
  <path class="fil7" d="M58 71l-1 0 1 -2 1 1c1,0 1,1 1,1 0,0 0,1 -1,1 0,0 0,1 0,1 -1,0 -1,0 -1,0 -1,0 -1,0 -1,0 -1,0 -1,0 -1,-1 -1,0 -1,0 -1,-1 0,0 0,0 1,-1 0,0 0,0 0,-1 0,0 0,0 1,0 0,0 0,0 0,0l0 1c0,0 0,0 0,0 -1,0 -1,0 -1,1 0,0 0,0 0,0 0,1 1,1 1,1 1,0 1,0 1,0 0,0 0,0 1,-1 0,0 0,0 0,0 0,0 0,0 0,0l-1 -1 0 1zm4 -5l-1 1 0 1 0 1 -3 -4 1 -1 4 1 -1 1 0 0zm-1 0l-2 -1 1 2 1 -1zm1 -5l1 -1 2 2 -1 -3 1 -1 3 4 -1 0 -2 -2 1 3 -1 0 -2 -2 2 3 -1 0 -2 -3zm6 -1l2 -1c0,0 0,1 0,1 0,0 0,0 0,0 1,0 1,-1 1,-1 0,0 0,0 0,0 0,0 0,0 0,0 -1,0 -1,0 -1,0 -1,0 -1,0 -1,0 -1,0 -1,-1 -1,-1 0,0 0,0 0,0 0,-1 0,-1 0,-1 0,0 1,0 1,-1 1,0 1,0 1,0 1,0 1,1 1,1l-1 0c0,0 0,0 0,0 0,0 -1,0 -1,0 0,0 0,0 0,0 0,0 0,1 0,1 0,0 0,0 0,0 0,0 0,0 1,0 0,0 1,0 1,0 0,0 0,0 0,0 1,0 1,0 1,0 0,1 0,1 0,1 0,0 0,1 -1,1 0,0 0,0 0,0 -1,1 -1,1 -2,0 0,0 0,0 -1,0zm12 -3l0 0c0,0 0,0 0,1 0,0 0,0 0,0l1 0c0,0 0,0 0,0l-1 1c0,0 0,0 0,0 0,0 0,0 -1,0 0,0 0,0 0,0 0,0 -1,0 -1,0 -1,0 -1,0 -1,0 0,-1 -1,-1 0,-1 0,0 0,-1 0,-1 0,0 0,0 0,0 0,-1 0,-1 0,-1 0,0 0,0 0,0 0,-1 0,-1 0,-1 1,0 1,0 1,0 1,0 1,0 1,0 1,0 1,0 1,1 0,0 0,0 0,0 0,0 -1,0 -1,0 0,0 0,1 0,1 0,0 0,0 0,0 1,0 1,0 1,0zm-2 -1c1,0 1,0 1,0 0,0 0,0 0,0 0,0 0,0 0,-1 0,0 0,0 -1,0 0,0 0,0 0,0 0,1 0,1 0,1 0,0 0,0 0,0zm0 1c0,0 0,0 0,0 0,1 0,1 0,1 0,0 0,0 0,0 0,0 0,0 0,0 0,0 1,0 1,0 0,0 -1,0 -1,-1zm9 -1l1 1 -2 3 2 0 0 1 -3 -1 2 -4zm4 7l-1 -1 0 1 -1 -1 3 -2 1 0 -1 4 -1 0 0 -1zm1 -1l0 -1 -1 1 1 0zm4 1l1 1 -1 2 2 -1 1 2 -3 2 -1 -1 3 -2 -3 2 -1 -1 2 -2 -2 1 -1 0 3 -3zm2 7l0 1c0,0 0,0 0,0 -1,1 -1,1 0,1 0,0 0,0 0,0 0,0 0,0 0,0 0,0 0,0 0,0 0,0 0,0 0,0 0,-1 0,-1 0,-2 1,0 1,0 1,0 0,0 0,0 1,0 0,0 0,0 0,0 0,0 1,0 1,1 0,0 0,1 0,1 0,0 -1,1 -1,1l0 -1c0,0 0,0 0,-1 0,0 0,0 0,0 0,0 0,0 0,0 0,0 0,0 0,0 -1,0 -1,0 -1,0 0,0 0,0 0,0 0,1 0,1 0,1 0,1 0,1 0,1 0,0 0,0 0,0 -1,1 -1,1 -1,0 0,0 -1,0 -1,0 0,0 0,0 0,-1 0,0 0,-1 0,-1 0,-1 0,-1 1,-1z"/>
  <path class="fil7" d="M57 88l0 0 1 0c0,0 0,0 0,0 0,0 0,1 0,1 1,0 1,0 1,0 0,0 1,-1 1,-1 0,0 0,0 -1,-1 0,0 0,0 0,-1l-2 2zm2 -1c0,0 0,0 0,0 0,1 0,1 0,1 0,0 -1,0 -1,0 0,0 0,0 0,0l1 -1zm0 4l-1 0 1 1 2 -2 -1 -1 -3 1 1 0 1 0 0 1zm0 -1l1 0c0,0 0,0 0,0l0 0c0,0 0,0 0,0l-1 0 0 0zm2 1l-2 2 1 0 2 -2 -1 0zm0 3l0 0c1,-1 1,-1 1,-1l0 0c0,0 0,1 0,1l-1 1 1 1 2 -2 0 -1 -1 1c0,0 -1,0 -1,1l0 0c0,-1 0,-1 0,-1l1 -2 -1 0 -2 2 1 0zm2 3l1 0 1 -2 0 1 1 -1 -2 -1 0 0 0 1 -1 2zm3 -1l-1 2 0 0 2 -2 -1 0zm1 3l0 -1c0,0 0,0 0,-1l0 0c0,1 0,1 0,1l1 2 0 0 1 -3 0 0 -1 1c0,0 0,1 0,1l0 0c0,0 0,-1 0,-1l0 -1 -1 -1 -1 3 1 0zm5 0l-1 0 0 1 0 0 0 0c0,0 0,0 -1,0 0,0 0,0 0,-1 0,0 1,-1 1,0 0,0 1,0 1,0l0 -1c0,0 0,0 -1,0 -1,0 -1,0 -2,1 0,0 0,1 0,1 0,0 1,1 1,1 1,0 1,0 1,0l1 -2zm4 3c0,0 -1,0 -1,-1 1,0 1,0 1,-1l-1 0c0,1 0,1 0,1 0,0 0,0 0,-1l0 0c0,0 0,0 0,0 1,-1 0,-1 0,-1 -1,0 -1,0 -1,1 0,0 0,0 0,0l0 0c0,0 -1,0 -1,1 0,0 0,1 1,1 0,0 1,0 1,0 0,0 0,0 0,0l1 0zm-2 -1c0,0 0,0 0,0 0,0 0,0 0,-1 0,1 1,1 1,1 0,0 -1,0 -1,0zm1 -2c0,0 0,1 0,1 0,0 0,0 0,0 -1,0 -1,0 -1,0 0,-1 1,-1 1,-1zm3 3c0,0 0,0 0,0 1,0 1,0 2,0 0,-1 0,-1 0,-2 0,0 0,0 0,-1 -1,0 -1,0 -2,0 0,0 0,0 0,0l0 3zm0 -2c0,0 0,0 1,0 0,0 0,0 0,1 1,0 0,1 0,1 -1,0 -1,0 -1,0l0 -2zm4 0l-1 0 0 0 1 -1 0 0 -1 0 0 3 2 0 0 -1 -1 0 -1 0 1 -1 0 0zm3 0c0,0 0,0 0,0 -1,1 -1,0 -1,0 0,-1 0,-1 0,-1 1,0 1,0 1,0l0 -1c0,0 0,0 -1,0 -1,0 -1,1 -1,2 0,1 1,1 2,1 0,0 0,0 1,0l-1 -1zm1 -3c-1,1 -1,2 0,2 0,1 1,1 1,1 1,0 1,-1 1,-2 0,-1 -1,-1 -2,-1zm0 1c1,0 1,0 1,0 1,1 1,1 0,2 0,0 -1,0 -1,-1 0,0 0,-1 0,-1zm3 1l1 0 -1 -1 0 0c1,0 1,0 1,0 0,0 1,0 1,0l0 0c0,0 0,0 0,-1 -1,0 -1,0 -1,0l0 0c0,0 0,0 0,-1 0,0 0,0 -1,0 0,0 0,0 0,0 -1,0 -1,1 -1,1l1 2zm0 -2c0,0 0,0 0,0 0,-1 0,-1 0,0 1,0 1,0 0,0l0 0 0 0zm3 -1l1 0 1 0 -3 -2 0 1 1 3 0 -1 0 0 0 -1zm0 0l-1 0c0,-1 0,-1 0,-1l0 0c0,0 0,0 1,0l0 1 0 0zm2 -1l1 0 -2 -2 1 0 -1 -1 -1 2 0 0 1 0 1 1zm0 -3l2 2 0 -1 -2 -1 0 0zm3 0l-1 0c0,-1 0,-1 -1,-1l0 0c1,0 1,0 1,0l2 0 0 0 -2 -2 -1 1 1 0c0,0 1,0 1,1l0 0c0,-1 -1,-1 -1,-1l-1 0 -1 1 3 1 0 0zm1 -5l0 1 0 0 0 0 1 0c0,0 0,0 0,0 -1,1 -1,1 -2,1 0,-1 0,-1 0,-2 0,0 0,0 0,0l0 0c0,0 0,0 0,0 -1,1 -1,2 0,2 1,0 1,0 1,0 1,0 1,0 1,-1 0,0 0,0 0,0l-1 -1z"/>
  <circle class="fil8 str0" cx="78" cy="79" r="26"/>
  <circle class="fil0 str0" cx="56" cy="80" r="1"/>
  <circle class="fil0 str0" cx="100" cy="81" r="1"/>
 </g>
</svg>
